<svg xmlns="http://www.w3.org/2000/svg" viewBox="-32 0 512 512">
<path d="M336.53 416c56.4697 0 103.16 -35.4297 111.29 -81.6396c0.104492 -0.649414 0.163086 -1.30371 0.163086 -1.98242c0 -6.83203 -5.54785 -12.3799 -12.3799 -12.3799c-0.0683594 0 -0.135742 0.000976562 -0.203125 0.00195312h-35.4004l-16 32l-16 -32h-101.72c11.2002 -48.1396 28.7197 -143.13 18.5195 -231.82c51.9404 -17.1299 92 -62.4492 99 -118.13c2.31055 -18.3096 -13.3398 -34.0498 -31.7998 -34.0498h-319.88c-19.7305 0 -34.6504 17.7002 -31.7598 37.2197c10.3457 69.3457 70.2324 122.75 142.439 122.75h53.3301c10 42.8799 25 122.88 21 202.5l-71 -71c-5.36035 -5.35938 -14.1396 -4.25 -18.5 1.9502c-25.0801 35.7002 -19.6699 87.5801 14.54 122.58h-30.1699l-16 32l-16 -32h-35.4004c-0.0673828 -0.000976562 -0.131836 -0.0136719 -0.199219 -0.0136719c-6.83301 0 -12.3799 5.54785 -12.3799 12.3799c0 0.678711 0.0546875 1.34473 0.15918 1.99414c8.12988 46.21 54.8203 81.6396 111.29 81.6396c50.25 0 92.3105 -28.29 106.761 -67.0801c20.6396 21.2598 51.4199 35.0801 86.2998 35.0801z" transform="scale(1, -1) translate(0, -448)"/>
</svg>